<svg xmlns="http://www.w3.org/2000/svg" width="400" height="300" viewBox="0 0 400 300" version="1.1"><path d="M 117.370 86.426 C 95.286 91.467, 76.446 109.801, 68.997 133.500 C 65.885 143.401, 65.867 159.675, 68.958 169.500 C 75.123 189.094, 90.868 205.057, 110 211.109 C 134.191 218.762, 159.210 214.090, 175.465 198.884 C 191.686 183.710, 199.544 162.810, 202.590 126.741 C 202.904 123.023, 203.462 120.175, 203.831 120.412 C 204.199 120.649, 213.050 140.444, 223.500 164.402 C 239.426 200.914, 242.824 207.962, 244.500 207.970 C 246.125 207.977, 250.909 199.539, 270 162.996 C 282.925 138.256, 293.860 118.010, 294.300 118.007 C 294.740 118.003, 294.965 137.387, 294.800 161.081 C 294.512 202.388, 294.420 204.221, 292.559 205.581 C 291.491 206.362, 289.409 207, 287.931 207 C 285.011 207, 282.439 209.283, 283.473 210.956 C 283.892 211.635, 292.627 212, 308.452 212 C 328.203 212, 332.886 211.740, 333.315 210.622 C 334.101 208.573, 332.006 207, 328.491 207 C 322.544 207, 321.566 205.304, 320.899 193.833 C 320.122 180.491, 320.307 94.359, 321.114 93.552 C 321.452 93.214, 324.152 92.658, 327.114 92.316 C 332.801 91.660, 334.579 90.403, 332.820 88.284 C 332.041 87.344, 327.771 87, 316.898 87 L 302.041 87 300.060 90.750 C 263.104 160.722, 254.254 177.227, 253.622 177.351 C 253.204 177.433, 244.602 157.250, 234.506 132.500 L 216.149 87.500 200.324 87.500 C 184.675 87.500, 184.496 87.525, 184.180 89.750 C 183.922 91.569, 184.340 92, 186.365 92 C 195.018 92, 196.480 95.821, 195.717 116.432 C 194.206 157.212, 182.563 188.088, 164.271 199.826 C 142.875 213.556, 110.040 202.793, 97.627 177.982 C 92.359 167.451, 90.602 158.032, 91.303 144.076 C 92.761 115.070, 104.989 95.605, 124.022 91.996 C 130.285 90.808, 142.537 92.259, 148.496 94.895 C 161.136 100.486, 168.959 115.295, 168.992 133.691 C 169.001 138.174, 169.870 139.371, 172.410 138.396 C 173.806 137.861, 174 134.680, 174 112.362 C 174 90.590, 173.783 86.854, 172.487 86.357 C 170.140 85.456, 168.142 87.787, 167.806 91.818 C 167.404 96.634, 165.496 96.905, 159.365 93.015 C 149.064 86.479, 130.143 83.511, 117.370 86.426" stroke="none" fill="#171610" fill-rule="evenodd"/><path d="M -0 150.002 L -0 300.005 200.250 299.752 L 400.500 299.500 400.753 149.750 L 401.007 0 200.503 0 L 0 0 -0 150.002 M 0.487 150.500 C 0.487 233, 0.605 266.602, 0.750 225.172 C 0.894 183.741, 0.894 116.241, 0.750 75.172 C 0.605 34.102, 0.487 68, 0.487 150.500 M 117.370 86.426 C 95.286 91.467, 76.446 109.801, 68.997 133.500 C 65.885 143.401, 65.867 159.675, 68.958 169.500 C 75.123 189.094, 90.868 205.057, 110 211.109 C 134.191 218.762, 159.210 214.090, 175.465 198.884 C 191.686 183.710, 199.544 162.810, 202.590 126.741 C 202.904 123.023, 203.462 120.175, 203.831 120.412 C 204.199 120.649, 213.050 140.444, 223.500 164.402 C 239.426 200.914, 242.824 207.962, 244.500 207.970 C 246.125 207.977, 250.909 199.539, 270 162.996 C 282.925 138.256, 293.860 118.010, 294.300 118.007 C 294.740 118.003, 294.965 137.387, 294.800 161.081 C 294.512 202.388, 294.420 204.221, 292.559 205.581 C 291.491 206.362, 289.409 207, 287.931 207 C 285.011 207, 282.439 209.283, 283.473 210.956 C 283.892 211.635, 292.627 212, 308.452 212 C 328.203 212, 332.886 211.740, 333.315 210.622 C 334.101 208.573, 332.006 207, 328.491 207 C 322.544 207, 321.566 205.304, 320.899 193.833 C 320.122 180.491, 320.307 94.359, 321.114 93.552 C 321.452 93.214, 324.152 92.658, 327.114 92.316 C 332.801 91.660, 334.579 90.403, 332.820 88.284 C 332.041 87.344, 327.771 87, 316.898 87 L 302.041 87 300.060 90.750 C 263.104 160.722, 254.254 177.227, 253.622 177.351 C 253.204 177.433, 244.602 157.250, 234.506 132.500 L 216.149 87.500 200.324 87.500 C 184.675 87.500, 184.496 87.525, 184.180 89.750 C 183.922 91.569, 184.340 92, 186.365 92 C 195.018 92, 196.480 95.821, 195.717 116.432 C 194.206 157.212, 182.563 188.088, 164.271 199.826 C 142.875 213.556, 110.040 202.793, 97.627 177.982 C 92.359 167.451, 90.602 158.032, 91.303 144.076 C 92.761 115.070, 104.989 95.605, 124.022 91.996 C 130.285 90.808, 142.537 92.259, 148.496 94.895 C 161.136 100.486, 168.959 115.295, 168.992 133.691 C 169.001 138.174, 169.870 139.371, 172.410 138.396 C 173.806 137.861, 174 134.680, 174 112.362 C 174 90.590, 173.783 86.854, 172.487 86.357 C 170.140 85.456, 168.142 87.787, 167.806 91.818 C 167.404 96.634, 165.496 96.905, 159.365 93.015 C 149.064 86.479, 130.143 83.511, 117.370 86.426" stroke="none" fill="#fbfbf3" fill-rule="evenodd"/></svg>